<svg width="120" height="120" viewBox="0 0 120 120" fill="none" xmlns="http://www.w3.org/2000/svg">
<path d="M21 80.775V40.5H39.0404C42.4766 40.5 45.5086 40.9043 48.0353 41.7128C50.5619 42.5213 52.6338 43.7341 54.3014 45.4017C55.969 47.0693 57.1818 49.1412 57.9903 51.6678C58.7988 54.1945 59.2031 57.176 59.2031 60.6628C59.2031 64.1496 58.7988 67.0805 57.9903 69.6072C57.1818 72.1338 55.969 74.2057 54.3014 75.8733C52.6338 77.5409 50.5619 78.7537 48.0353 79.5622C45.5086 80.3707 42.5271 80.775 39.0404 80.775H21ZM37.019 72.437C39.2425 72.437 41.0617 72.2349 42.5777 71.8306C44.0937 71.4264 45.3065 70.7694 46.2161 69.8598C47.1257 68.9502 47.7826 67.7374 48.1869 66.2214C48.5911 64.7054 48.7933 62.8862 48.7933 60.6628C48.7933 58.4393 48.5911 56.6201 48.1869 55.1041C47.7826 53.5881 47.1257 52.3753 46.2161 51.4657C45.3065 50.5561 44.0937 49.8992 42.5777 49.4949C41.0617 49.0907 39.2425 48.8885 37.019 48.8885H30.955V72.3865H37.019V72.437Z" fill="#3A3A42"/>
<path d="M66.8349 80.775V72.437H85.4816C88.0083 72.437 89.3222 71.1737 89.3222 68.5965C89.3222 66.0193 88.0588 64.756 85.4816 64.756H77.8006C73.7579 64.756 70.7259 63.7453 68.7046 61.724C66.6833 59.7026 65.7231 56.6706 65.7231 52.5774C65.7231 48.4843 66.7338 45.5028 68.7046 43.4815C70.6754 41.4601 73.7074 40.5 77.8006 40.5H98.0139V48.8885H79.923C78.7102 48.8885 77.7501 49.1917 77.1437 49.8487C76.4867 50.5056 76.1835 51.4152 76.1835 52.628C76.1835 53.8408 76.4867 54.7504 77.1437 55.4073C77.8006 56.0642 78.7102 56.3674 79.923 56.3674H87.4524C91.4951 56.3674 94.5271 57.3781 96.599 59.45C98.6708 61.5218 99.732 64.5538 99.732 68.546C99.732 72.5381 98.6708 75.6711 96.599 77.6925C94.5271 79.7643 91.4951 80.775 87.4524 80.775H66.8349Z" fill="#3A3A42"/>
</svg>
