<svg xmlns="http://www.w3.org/2000/svg" viewBox="0 0 37.42 33.85"><defs><style>.cls-1{isolation:isolate;}.cls-2{fill:#055992;}.cls-3{mix-blend-mode:darken;}.cls-4{fill:#fff;}.cls-5{fill:#1f2438;}</style></defs><g class="cls-1"><g id="Layer_1" data-name="Layer 1"><path class="cls-2" d="M24.49,19.33a2.77,2.77,0,1,0,2.7-2.82A2.75,2.75,0,0,0,24.49,19.33Z"/><path class="cls-2" d="M13.16,6.09a2.77,2.77,0,1,0,2.7-2.82A2.75,2.75,0,0,0,13.16,6.09Z"/><path class="cls-2" d="M6.45,4.14A2.15,2.15,0,1,0,8.55,2,2.14,2.14,0,0,0,6.45,4.14Z"/><path class="cls-2" d="M24.44,26.35a2,2,0,1,0,1.92-2A2,2,0,0,0,24.44,26.35Z"/><path class="cls-2" d="M20.11,29.1a1.16,1.16,0,1,0,1.13-1.18A1.15,1.15,0,0,0,20.11,29.1Z"/><path class="cls-2" d="M2.71,7.36A1.28,1.28,0,1,0,4,6.06,1.28,1.28,0,0,0,2.71,7.36Z"/><path class="cls-2" d="M2.56,12.35a1,1,0,1,0,1-1A1,1,0,0,0,2.56,12.35Z"/><path class="cls-2" d="M19.42,11.78A3.47,3.47,0,1,0,22.8,8.26,3.47,3.47,0,0,0,19.42,11.78Z"/><g class="cls-3"><path class="cls-4" d="M24.44,26.35a2,2,0,1,0,1.92-2A2,2,0,0,0,24.44,26.35Z"/><path class="cls-4" d="M20.11,29.1a1.16,1.16,0,1,0,1.13-1.18A1.15,1.15,0,0,0,20.11,29.1Z"/><path class="cls-4" d="M2.71,7.36A1.28,1.28,0,1,0,4,6.06,1.28,1.28,0,0,0,2.71,7.36Z"/><path class="cls-4" d="M2.56,12.35a1,1,0,1,0,1-1A1,1,0,0,0,2.56,12.35Z"/></g><path class="cls-5" d="M17.12,25.87l-4.05-3.7,4-4A1,1,0,0,0,17.28,17a1,1,0,0,0-1.69-.31l-4,4L7.53,16.65a1,1,0,0,0-.73-.31,1.06,1.06,0,0,0-1,.64,1,1,0,0,0,.23,1.13l4.06,4.07-4,4a1,1,0,0,0-.23,1.13,1.06,1.06,0,0,0,1,.64,1,1,0,0,0,.73-.31l4-4,4,3.72a1.07,1.07,0,0,0,.74.3,1,1,0,0,0,.95-.62A1.06,1.06,0,0,0,17.12,25.87Z"/><path class="cls-5" d="M30.41,28.27a2.49,2.49,0,0,1,.56-.82,2.84,2.84,0,0,1,.84-.55,2.75,2.75,0,0,1,2,0,2.79,2.79,0,0,1,.83.55,2.49,2.49,0,0,1,.56.82,2.45,2.45,0,0,1,.21,1,2.54,2.54,0,0,1-.21,1,2.64,2.64,0,0,1-.56.83,2.7,2.7,0,0,1-2.84.54,2.48,2.48,0,0,1-1.4-1.37,2.54,2.54,0,0,1-.21-1A2.45,2.45,0,0,1,30.41,28.27Zm.42,1.91a2.08,2.08,0,0,0,.46.7,1.93,1.93,0,0,0,.68.47,2.19,2.19,0,0,0,1.69,0,2.13,2.13,0,0,0,.68-.47,2.21,2.21,0,0,0,.45-.7,2.35,2.35,0,0,0,.16-.89,2.28,2.28,0,0,0-.16-.87,2.21,2.21,0,0,0-.45-.7,2.27,2.27,0,0,0-.68-.46,2.19,2.19,0,0,0-1.69,0,2,2,0,0,0-.68.46,2.08,2.08,0,0,0-.46.7,2.28,2.28,0,0,0-.16.87A2.35,2.35,0,0,0,30.83,30.18ZM33,27.78a1.19,1.19,0,0,1,.8.22.8.8,0,0,1,.26.65.75.75,0,0,1-.23.6,1,1,0,0,1-.57.23l.87,1.34H33.6l-.82-1.31h-.5v1.31H31.8v-3Zm-.21,1.35h.3a.83.83,0,0,0,.25-.06.34.34,0,0,0,.18-.15.47.47,0,0,0,.07-.28.43.43,0,0,0-.06-.24.4.4,0,0,0-.15-.14.81.81,0,0,0-.22-.07l-.24,0h-.62v1Z"/></g></g></svg>