<?xml version="1.0" encoding="UTF-8"?>
<svg width="29px" height="29px" viewBox="0 0 29 29" version="1.1" xmlns="http://www.w3.org/2000/svg" xmlns:xlink="http://www.w3.org/1999/xlink">
    <title>logo</title>
    <g id="Page-1" stroke="none" stroke-width="1" fill="none" fill-rule="evenodd">
        <g id="logo" fill="#FFFFFF" fill-rule="nonzero">
            <path d="M22.49,17.33 C22.5106073,18.4518699 23.2059749,19.45049 24.2510233,19.8590125 C25.2960716,20.267535 26.4843419,20.0052525 27.260326,19.1947802 C28.0363101,18.3843079 28.2467053,17.1857621 27.7931533,16.1594545 C27.3396014,15.1331469 26.3117056,14.481834 25.19,14.51 C24.4570724,14.5230876 23.7597034,14.8282562 23.2527507,15.3577401 C22.7457981,15.8872239 22.4712238,16.5971961 22.49,17.33 L22.49,17.33 Z" id="Path"></path>
            <path d="M11.16,4.09 C11.1806073,5.21186988 11.8759749,6.21049003 12.9210233,6.61901253 C13.9660716,7.02753502 15.1543419,6.7652525 15.930326,5.95478021 C16.7063101,5.14430791 16.9167053,3.94576206 16.4631533,2.91945446 C16.0096014,1.89314686 14.9817056,1.24183396 13.86,1.27 C13.1270724,1.28308758 12.4297034,1.58825619 11.9227507,2.11774005 C11.4157981,2.64722392 11.1412238,3.35719607 11.16,4.09 L11.16,4.09 Z" id="Path"></path>
            <path d="M4.44997922,2.14 C4.44616667,3.01499403 4.97299063,3.80502672 5.78223084,4.13783228 C6.59147104,4.47063783 7.52167703,4.27981866 8.13453292,3.65528932 C8.74738882,3.03075998 8.92062454,2.09711951 8.57261089,1.29430213 C8.22459724,0.491484748 7.42476597,-0.0203404968 6.55,-8.8817842e-16 C5.38376077,0.0218026553 4.44979622,0.973557009 4.44997922,2.14 Z" id="Path"></path>
            <path d="M22.4399993,24.35 C22.4406531,25.1660659 22.937051,25.8998858 23.6942666,26.2041695 C24.4514822,26.5084531 25.3176222,26.3221628 25.882774,25.733463 C26.4479258,25.1447633 26.598723,24.2717439 26.2637989,23.5275734 C25.9288747,22.7834028 25.1754131,22.3173576 24.36,22.35 C23.2867922,22.3929624 22.4391404,23.2759329 22.4399993,24.35 L22.4399993,24.35 Z" id="Path"></path>
            <path d="M18.11,27.1 C18.1182594,27.5699628 18.4093059,27.988488 18.8470052,28.1598142 C19.2847044,28.3311404 19.7825277,28.2213981 20.1076227,27.8819184 C20.4327177,27.5424386 20.5208165,27.040333 20.3307117,26.610457 C20.1406068,26.180581 19.70988,25.9079165 19.24,25.92 C18.9332146,25.9252306 18.6412406,26.0528418 18.4290249,26.2744475 C18.2168092,26.4960533 18.1019512,26.7932756 18.11,27.1 Z" id="Path"></path>
            <path d="M0.71,5.36 C0.721006455,6.06291047 1.29684279,6.62539925 1.99981809,6.61992083 C2.70279338,6.61444241 3.26979315,6.0430473 3.26984311,5.34005066 C3.26989306,4.63705402 2.70297451,4.06557833 2,4.06 C1.6552985,4.05726468 1.32406414,4.19367659 1.08125862,4.43836432 C0.838453104,4.68305205 0.704603017,5.0153299 0.71,5.36 Z" id="Path"></path>
            <path d="M0.56,10.35 C0.56,10.9022847 1.00771525,11.35 1.56,11.35 C2.11228475,11.35 2.56,10.9022847 2.56,10.35 C2.56,9.79771525 2.11228475,9.35 1.56,9.35 C1.00771525,9.35 0.56,9.79771525 0.56,10.35 Z" id="Path"></path>
            <path d="M17.42,9.78 C17.4407429,11.186833 18.3089472,12.4418891 19.6180635,12.9574701 C20.9271798,13.4730511 22.4180502,13.1470904 23.3925527,12.1322239 C24.3670552,11.1173573 24.6322734,9.61449208 24.0640151,8.32736673 C23.4957567,7.04024138 22.2065165,6.22366048 20.8,6.26 C18.8992138,6.30910973 17.3919677,7.87878618 17.42,9.78 L17.42,9.78 Z" id="Path"></path>
            <g id="Group" style="mix-blend-mode: darken;" transform="translate(0.000000, 4.000000)">
                <path d="M22.4399993,20.35 C22.4406531,21.1660659 22.937051,21.8998858 23.6942666,22.2041695 C24.4514822,22.5084531 25.3176222,22.3221628 25.882774,21.733463 C26.4479258,21.1447633 26.598723,20.2717439 26.2637989,19.5275734 C25.9288747,18.7834028 25.1754131,18.3173576 24.36,18.35 C23.2867922,18.3929624 22.4391404,19.2759329 22.4399993,20.35 L22.4399993,20.35 Z" id="Path"></path>
                <path d="M18.11,23.1 C18.1182594,23.5699628 18.4093059,23.988488 18.8470052,24.1598142 C19.2847044,24.3311404 19.7825277,24.2213981 20.1076227,23.8819184 C20.4327177,23.5424386 20.5208165,23.040333 20.3307117,22.610457 C20.1406068,22.180581 19.70988,21.9079165 19.24,21.92 C18.9332146,21.9252306 18.6412406,22.0528418 18.4290249,22.2744475 C18.2168092,22.4960533 18.1019512,22.7932756 18.11,23.1 Z" id="Path"></path>
                <path d="M0.71,1.36 C0.721006455,2.06291047 1.29684279,2.62539925 1.99981809,2.61992083 C2.70279338,2.61444241 3.26979315,2.0430473 3.26984311,1.34005066 C3.26989306,0.637054021 2.70297451,0.0655783277 2,0.06 C1.6552985,0.0572646833 1.32406414,0.193676594 1.08125862,0.438364324 C0.838453104,0.683052053 0.704603017,1.0153299 0.71,1.36 Z" id="Path"></path>
                <path d="M0.56,6.35 C0.56,6.90228475 1.00771525,7.35 1.56,7.35 C2.11228475,7.35 2.56,6.90228475 2.56,6.35 C2.56,5.79771525 2.11228475,5.35 1.56,5.35 C1.00771525,5.35 0.56,5.79771525 0.56,6.35 Z" id="Path"></path>
            </g>
            <path d="M15.12,23.87 L11.07,20.17 L15.07,16.17 C15.3893539,15.868442 15.4745467,15.3937966 15.28,15 C15.1572274,14.6697011 14.8696755,14.4283987 14.52308,14.364822 C14.1764844,14.3012453 13.8220099,14.4247795 13.59,14.69 L9.59,18.69 L5.53,14.65 C5.33979613,14.4504658 5.07566015,14.3382985 4.8,14.34 C4.36725553,14.3291315 3.9713824,14.5824903 3.8,14.98 C3.62989812,15.367395 3.72200435,15.8199169 4.03,16.11 L8.09,20.18 L4.09,24.18 C3.78200435,24.4700831 3.68989812,24.922605 3.86,25.31 C4.0313824,25.7075097 4.42725553,25.9608685 4.86,25.95 C5.13566015,25.9517015 5.39979613,25.8395342 5.59,25.64 L9.59,21.64 L13.59,25.36 C13.7887148,25.5517405 14.0538634,25.6592332 14.33,25.66 C14.7445941,25.6703209 15.1225339,25.4236655 15.28,25.04 C15.4689607,24.653655 15.40575,24.1914273 15.12,23.87 L15.12,23.87 Z" id="Path"></path>
        </g>
    </g>
</svg>